<svg width="210" height="157" viewBox="0 0 210 157" fill="none" xmlns="http://www.w3.org/2000/svg">
<path d="M30.7535 139.674C71.7536 161.095 138.236 161.095 179.245 139.674C220.254 118.253 220.249 83.5222 179.245 62.1009C138.24 40.6797 71.7628 40.6797 30.7535 62.1009C-10.2558 83.5222 -10.2466 118.271 30.7535 139.674Z" fill="#F5F5F5"/>
<path d="M28.4254 103.839C34.242 103.839 38.9573 101.592 38.9573 98.8204C38.9573 96.0488 34.242 93.802 28.4254 93.802C22.6088 93.802 17.8936 96.0488 17.8936 98.8204C17.8936 101.592 22.6088 103.839 28.4254 103.839Z" fill="#EBEBEB"/>
<path d="M148.612 110.539C156.375 110.539 162.668 107.539 162.668 103.839C162.668 100.138 156.375 97.1385 148.612 97.1385C140.849 97.1385 134.555 100.138 134.555 103.839C134.555 107.539 140.849 110.539 148.612 110.539Z" fill="#EBEBEB"/>
<path d="M190.634 76.2718C190.634 76.2718 191.72 72.917 195.254 69.3422C196.812 67.7656 197.829 66.6657 197.504 65.7262C197.21 64.8966 196.221 64.4658 194.804 65.1349C192.792 66.0882 191.436 67.8573 190.634 71.4092V76.2718Z" fill="#C53F3F"/>
<path opacity="0.1" d="M190.634 76.2718C190.634 76.2718 191.72 72.917 195.254 69.3422C196.812 67.7656 197.829 66.6657 197.504 65.7262C197.21 64.8966 196.221 64.4658 194.804 65.1349C192.792 66.0882 191.436 67.8573 190.634 71.4092V76.2718Z" fill="black"/>
<path d="M190.409 74.1636H190.368C190.324 74.1517 190.286 74.123 190.263 74.0835C190.24 74.0441 190.233 73.9971 190.244 73.9527C191.505 69.0855 194.763 66.0699 196.143 65.3732C196.184 65.3538 196.232 65.351 196.275 65.3655C196.319 65.38 196.355 65.4107 196.376 65.4512C196.396 65.492 196.398 65.5387 196.384 65.5815C196.369 65.6242 196.339 65.6597 196.299 65.6803C194.965 66.354 191.807 69.2872 190.579 74.0398C190.568 74.0761 190.545 74.1078 190.515 74.1301C190.484 74.1524 190.447 74.1642 190.409 74.1636Z" fill="white"/>
<path d="M190.634 80.4378C190.634 80.4378 192.142 77.4817 193.961 75.9097C195.781 74.3377 198.118 72.7337 196.138 71.5054C194.158 70.2771 190.9 72.6878 190.638 75.0664L190.634 80.4378Z" fill="#C53F3F"/>
<path d="M190.409 78.3342H190.373C190.329 78.3233 190.29 78.2956 190.267 78.2571C190.243 78.2186 190.235 78.1722 190.244 78.1279C191.101 74.4615 194.177 72.3899 195.199 72.0462C195.241 72.0374 195.285 72.0446 195.322 72.0663C195.359 72.088 195.387 72.1227 195.4 72.1637C195.413 72.2047 195.41 72.2491 195.393 72.2883C195.375 72.3276 195.343 72.3589 195.304 72.3762C194.387 72.6878 191.39 74.7273 190.579 78.2058C190.569 78.2429 190.547 78.2757 190.516 78.2989C190.485 78.3221 190.448 78.3345 190.409 78.3342V78.3342Z" fill="white"/>
<path d="M56.5974 110.15C56.5974 110.15 55.9008 108.601 52.9906 107.945C50.1582 107.308 48.7512 107.945 46.8401 107.615C44.929 107.285 45.4285 103.715 50.5707 104.086C55.2775 104.426 56.5974 108.129 56.5974 108.129V110.15Z" fill="#C53F3F"/>
<path d="M56.8771 109.297C56.8437 109.297 56.8113 109.286 56.7837 109.267C56.7561 109.249 56.7344 109.223 56.7213 109.192C56.263 108.097 54.5672 106.309 52.1794 105.764C49.2142 105.09 47.6376 105.764 47.6239 105.764C47.5829 105.778 47.5382 105.776 47.4985 105.758C47.4589 105.741 47.4271 105.71 47.4093 105.67C47.3916 105.631 47.3892 105.586 47.4026 105.545C47.416 105.504 47.4442 105.469 47.4818 105.448C47.5505 105.42 49.1821 104.71 52.2528 105.411C54.9064 106.016 56.5975 107.959 57.0375 109.045C57.0465 109.066 57.0512 109.088 57.0515 109.111C57.0517 109.134 57.0475 109.156 57.0389 109.177C57.0304 109.198 57.0178 109.217 57.0018 109.233C56.9858 109.249 56.9668 109.261 56.9458 109.27L56.8771 109.297Z" fill="white"/>
<path d="M56.5975 108.385C56.0174 107.347 55.2747 106.407 54.3976 105.603C51.6478 102.936 47.9813 102.097 46.1481 100.64C44.1316 99.0679 46.5743 97.253 49.1684 97.3676C50.6533 97.4364 52.2207 98.4171 53.0823 99.1229C56.1163 101.602 56.6158 105.603 56.6158 105.603L56.5975 108.385Z" fill="#C53F3F"/>
<path opacity="0.5" d="M56.5975 108.385C56.0174 107.347 55.2747 106.407 54.3976 105.603C51.6478 102.936 47.9813 102.097 46.1481 100.64C44.1316 99.0679 46.5743 97.253 49.1684 97.3676C50.6533 97.4364 52.2207 98.4171 53.0823 99.1229C56.1163 101.602 56.6158 105.603 56.6158 105.603L56.5975 108.385Z" fill="white"/>
<path d="M56.877 108.115C56.8359 108.114 56.7965 108.099 56.7654 108.072C56.7344 108.046 56.7139 108.009 56.7074 107.968C56.3463 106.041 55.4723 104.248 54.1775 102.776C52.0143 100.315 48.3158 98.9946 48.2745 98.9809C48.2327 98.9653 48.1985 98.9343 48.1789 98.8942C48.1592 98.8541 48.1558 98.808 48.1691 98.7655C48.1763 98.7439 48.1878 98.7239 48.2028 98.7068C48.2179 98.6898 48.2362 98.6759 48.2568 98.6661C48.2773 98.6562 48.2996 98.6506 48.3223 98.6496C48.3451 98.6486 48.3678 98.6521 48.3891 98.6601C48.5449 98.7105 52.2114 100.035 54.4342 102.546C55.7822 104.065 56.6874 105.925 57.0511 107.922C57.0543 107.945 57.0529 107.968 57.047 107.99C57.041 108.012 57.0307 108.033 57.0165 108.051C57.0024 108.069 56.9848 108.084 56.9647 108.095C56.9447 108.106 56.9226 108.113 56.8999 108.115H56.877Z" fill="white"/>
<path d="M119.495 136.869C119.495 136.869 120.274 135.357 123.217 134.857C126.077 134.371 127.447 135.063 129.376 134.857C131.306 134.651 130.994 131.035 125.838 131.131C121.122 131.218 119.605 134.843 119.605 134.843L119.495 136.869Z" fill="#C53F3F"/>
<path opacity="0.1" d="M119.495 136.869C119.495 136.869 120.274 135.357 123.217 134.857C126.077 134.371 127.447 135.063 129.376 134.857C131.306 134.651 130.994 131.035 125.838 131.131C121.122 131.218 119.605 134.843 119.605 134.843L119.495 136.869Z" fill="black"/>
<path d="M119.271 136.145C119.235 136.143 119.2 136.132 119.17 136.113C119.151 136.1 119.136 136.084 119.124 136.065C119.111 136.046 119.103 136.025 119.099 136.002C119.096 135.98 119.096 135.957 119.101 135.935C119.106 135.914 119.116 135.893 119.129 135.875C120.224 134.307 122.218 133.125 124.468 132.731C127.36 132.213 129.051 133.129 129.124 133.189C129.144 133.2 129.161 133.214 129.175 133.232C129.189 133.249 129.199 133.269 129.206 133.291C129.212 133.312 129.214 133.335 129.211 133.357C129.209 133.379 129.202 133.401 129.191 133.42C129.18 133.44 129.165 133.457 129.148 133.471C129.13 133.485 129.11 133.495 129.089 133.501C129.067 133.508 129.045 133.51 129.023 133.507C129 133.504 128.979 133.498 128.959 133.487C128.959 133.487 127.296 132.593 124.528 133.088C122.369 133.473 120.453 134.596 119.413 136.09C119.395 136.109 119.372 136.123 119.348 136.133C119.323 136.142 119.297 136.146 119.271 136.145V136.145Z" fill="white"/>
<path d="M119.702 134.747C120.367 133.91 121.123 133.149 121.957 132.478C124.858 129.967 128.529 129.559 130.472 128.202C132.571 126.74 130.229 124.797 127.63 124.774C126.145 124.774 124.528 125.659 123.625 126.319C121.701 127.76 120.262 129.754 119.5 132.034L119.702 134.747Z" fill="#C53F3F"/>
<path opacity="0.5" d="M119.702 134.747C120.367 133.91 121.123 133.149 121.957 132.478C124.858 129.967 128.529 129.559 130.472 128.202C132.571 126.74 130.229 124.797 127.63 124.774C126.145 124.774 124.528 125.659 123.625 126.319C121.701 127.76 120.262 129.754 119.5 132.034L119.702 134.747Z" fill="white"/>
<path d="M119.271 134.71H119.207C119.165 134.695 119.13 134.664 119.11 134.624C119.089 134.584 119.085 134.538 119.097 134.495C119.813 132.528 120.945 130.738 122.415 129.247C124.009 127.603 126.081 126.501 128.336 126.099C128.358 126.096 128.381 126.097 128.402 126.103C128.424 126.108 128.444 126.118 128.461 126.132C128.479 126.146 128.493 126.163 128.504 126.182C128.515 126.202 128.522 126.223 128.524 126.246C128.527 126.268 128.526 126.291 128.52 126.313C128.514 126.335 128.504 126.356 128.489 126.374C128.475 126.392 128.458 126.407 128.438 126.418C128.418 126.429 128.395 126.436 128.373 126.438C126.201 126.85 124.208 127.915 122.658 129.49C121.234 130.94 120.14 132.68 119.45 134.591C119.437 134.628 119.413 134.66 119.381 134.682C119.348 134.703 119.31 134.713 119.271 134.71V134.71Z" fill="white"/>
<path d="M75.2092 110.535V75.9097H56.5974V110.539C56.5974 111.914 57.514 113.289 59.3473 114.334C62.9816 116.433 68.8754 116.433 72.5098 114.334C74.343 113.285 75.2321 111.914 75.2367 110.539L75.2092 110.535Z" fill="#37474F"/>
<path d="M59.3242 79.9428C55.6852 77.8438 55.6852 74.4431 59.3242 72.3395C62.9631 70.2359 68.8524 70.2405 72.4867 72.3395C76.1211 74.4386 76.1211 77.8392 72.4867 79.9428C68.8524 82.0464 62.9586 82.0373 59.3242 79.9428Z" fill="#455A64"/>
<path d="M97.5515 123.436V98.2292H78.9351V123.436C78.9351 124.811 79.8517 126.186 81.6849 127.231C85.3193 129.33 91.2131 129.33 94.8475 127.231C96.6807 126.186 97.5744 124.811 97.5744 123.436H97.5515Z" fill="#37474F"/>
<path d="M81.6621 102.267C78.0277 100.168 78.0277 96.7673 81.6621 94.6636C85.2964 92.56 91.1902 92.5646 94.8246 94.6636C98.459 96.7627 98.4636 100.163 94.8246 102.267C91.1857 104.371 85.2918 104.384 81.6621 102.267Z" fill="#455A64"/>
<path d="M119.894 136.333V116.759H101.278V136.337C101.278 137.712 102.194 139.087 104.027 140.137C107.662 142.236 113.556 142.236 117.19 140.137C119.023 139.087 119.912 137.712 119.917 136.337L119.894 136.333Z" fill="#37474F"/>
<path d="M110.586 122.359C115.727 122.359 119.894 119.952 119.894 116.983C119.894 114.014 115.727 111.607 110.586 111.607C105.445 111.607 101.278 114.014 101.278 116.983C101.278 119.952 105.445 122.359 110.586 122.359Z" fill="#455A64"/>
<path d="M55.4058 122.744L51.0106 120.21L53.4442 117.056C53.7559 116.653 53.6092 116.433 53.1188 116.557L47.2892 118.06L42.894 115.521C42.5248 115.334 42.1165 115.236 41.7024 115.236C41.2883 115.236 40.88 115.334 40.5108 115.521L33.5858 119.508C32.9258 119.889 32.9258 120.503 33.5858 120.883L46.0976 128.106C46.4668 128.294 46.875 128.392 47.2892 128.392C47.7033 128.392 48.1115 128.294 48.4808 128.106L55.4058 124.105C56.0611 123.739 56.0611 123.124 55.4058 122.744Z" fill="#C53F3F"/>
<path d="M48.3754 121.19C48.4471 121.183 48.5192 121.183 48.5908 121.19C48.662 121.199 48.7307 121.223 48.7925 121.259L49.4204 121.621C49.4627 121.642 49.4956 121.678 49.512 121.722C49.512 121.759 49.512 121.791 49.4479 121.814C49.4329 121.818 49.417 121.818 49.402 121.814C49.3794 121.819 49.3559 121.819 49.3333 121.814L40.6255 122.501H40.378C40.3065 122.49 40.238 122.465 40.1763 122.428L39.5485 122.066C39.5061 122.045 39.4733 122.009 39.4568 121.965C39.4568 121.928 39.4568 121.896 39.5209 121.873C39.536 121.869 39.5518 121.869 39.5668 121.873H39.6355L48.3754 121.19ZM45.5706 120.608C45.3843 120.733 45.1898 120.845 44.9885 120.943C44.826 121.025 44.6556 121.091 44.4798 121.14C44.2956 121.187 44.1062 121.21 43.9161 121.209C43.4919 121.21 43.0753 121.096 42.7108 120.879C42.5368 120.794 42.3811 120.675 42.2525 120.53C42.1689 120.435 42.1219 120.313 42.1195 120.187C42.1212 120.067 42.1651 119.952 42.2433 119.861C42.3345 119.743 42.4463 119.642 42.5733 119.563C42.6602 119.501 42.7505 119.442 42.8437 119.389C42.9307 119.339 43.0362 119.284 43.1507 119.229C43.3157 119.146 43.4894 119.081 43.6686 119.036C44.0493 118.942 44.4474 118.942 44.8281 119.036C45.0399 119.094 45.2432 119.179 45.4331 119.288C45.5984 119.375 45.7449 119.493 45.8639 119.637C45.9484 119.732 45.9971 119.853 46.0014 119.98C45.9955 120.099 45.9522 120.213 45.8777 120.306C45.7937 120.424 45.6898 120.526 45.5706 120.608V120.608ZM46.4368 124.192C46.2593 124.325 46.0724 124.444 45.8777 124.55C45.7139 124.632 45.5418 124.697 45.3644 124.742C45.1808 124.793 44.991 124.818 44.8006 124.816C44.5977 124.815 44.3959 124.787 44.2003 124.733C43.988 124.679 43.7844 124.596 43.5953 124.486C43.4318 124.397 43.2858 124.279 43.1645 124.137C43.08 124.041 43.0328 123.917 43.0316 123.789C43.0352 123.671 43.077 123.556 43.1507 123.464C43.2441 123.347 43.3573 123.248 43.4853 123.17C43.5704 123.105 43.6609 123.047 43.7557 122.996C43.8545 122.936 43.9571 122.883 44.0628 122.836C44.2262 122.753 44.3983 122.688 44.5761 122.643C44.7607 122.598 44.9497 122.573 45.1398 122.57C45.5625 122.57 45.9773 122.684 46.3406 122.9C46.5154 122.984 46.6713 123.102 46.7989 123.248C46.8798 123.341 46.9244 123.46 46.9244 123.583C46.9244 123.706 46.8798 123.825 46.7989 123.917C46.6946 124.029 46.5722 124.122 46.4368 124.192ZM43.5174 120.068C43.4263 120.119 43.3516 120.195 43.302 120.288C43.302 120.352 43.302 120.416 43.4349 120.48C43.5339 120.54 43.6494 120.567 43.7649 120.558C43.898 120.537 44.0266 120.494 44.1453 120.43C44.319 120.346 44.486 120.25 44.6448 120.141C44.7381 120.091 44.8146 120.014 44.8648 119.921C44.8648 119.857 44.8419 119.793 44.7319 119.728C44.6315 119.668 44.5139 119.642 44.3973 119.655C44.2657 119.674 44.1384 119.716 44.0215 119.779C43.8464 119.855 43.6779 119.946 43.5174 120.049V120.068ZM44.3882 123.651C44.2949 123.702 44.2184 123.778 44.1682 123.871C44.1682 123.931 44.1682 123.995 44.3011 124.059C44.4002 124.123 44.5185 124.151 44.6357 124.137C44.7668 124.117 44.8937 124.075 45.0115 124.014C45.1871 123.931 45.3558 123.835 45.5156 123.725C45.6079 123.675 45.6829 123.598 45.731 123.505C45.731 123.441 45.731 123.377 45.5981 123.312C45.4991 123.252 45.3836 123.225 45.2681 123.234C45.1363 123.255 45.0091 123.298 44.8923 123.363C44.7172 123.439 44.5486 123.53 44.3882 123.633V123.651Z" fill="white"/>
<path d="M79.6135 136.713L75.2092 134.174L77.6428 131.026C77.9498 130.622 77.8032 130.398 77.3128 130.526L71.4831 132.025L67.088 129.49C66.7196 129.303 66.3121 129.205 65.8987 129.205C65.4853 129.205 65.0778 129.303 64.7094 129.49L57.7935 133.487C57.1382 133.867 57.1382 134.486 57.7935 134.862L70.3053 142.089C70.6751 142.275 71.0832 142.371 71.4969 142.371C71.9106 142.371 72.3187 142.275 72.6885 142.089L79.6135 138.088C80.2735 137.708 80.2735 137.094 79.6135 136.713Z" fill="#C53F3F"/>
<path d="M72.5832 135.16H72.8032C72.8744 135.171 72.9429 135.196 73.0048 135.233L73.6281 135.595C73.6831 135.627 73.7152 135.659 73.7198 135.696C73.7244 135.732 73.7198 135.76 73.6602 135.787C73.6451 135.791 73.6295 135.791 73.6144 135.787H73.5456L64.8378 136.475C64.7646 136.482 64.691 136.482 64.6178 136.475C64.5462 136.465 64.4775 136.44 64.4162 136.402L63.7929 136.044C63.7379 136.012 63.7058 135.975 63.7012 135.943C63.6997 135.923 63.7046 135.903 63.7153 135.885C63.726 135.868 63.742 135.855 63.7608 135.847H63.8066H63.8754L72.5832 135.16ZM69.7783 134.578C69.5942 134.703 69.4012 134.815 69.2009 134.912C69.0371 134.994 68.8651 135.059 68.6876 135.105C68.5039 135.155 68.3142 135.18 68.1238 135.178C67.921 135.177 67.7191 135.149 67.5235 135.095C67.3112 135.042 67.1076 134.958 66.9185 134.848C66.7537 134.759 66.6063 134.641 66.4831 134.5C66.4 134.407 66.3541 134.287 66.3541 134.163C66.3541 134.038 66.4 133.918 66.4831 133.826C66.5758 133.71 66.6874 133.611 66.8131 133.533C66.8996 133.469 66.9899 133.411 67.0835 133.358C67.1844 133.299 67.2884 133.246 67.3951 133.198C67.5586 133.115 67.7307 133.05 67.9085 133.006C68.205 132.93 68.5135 132.914 68.8163 132.958C69.1191 133.002 69.4102 133.105 69.6729 133.262C69.8387 133.35 69.9864 133.468 70.1083 133.61C70.1925 133.705 70.2397 133.827 70.2412 133.954C70.2377 134.073 70.1941 134.188 70.1175 134.28C70.0236 134.399 69.9086 134.5 69.7783 134.578ZM70.6491 138.161C70.463 138.286 70.2685 138.398 70.0671 138.496C69.9053 138.579 69.7346 138.644 69.5583 138.689C69.3741 138.735 69.1847 138.758 68.9946 138.757C68.5704 138.758 68.1539 138.644 67.7893 138.427C67.6239 138.341 67.4761 138.224 67.3539 138.084C67.2694 137.987 67.2222 137.863 67.221 137.735C67.2262 137.616 67.2696 137.502 67.3447 137.41C67.4372 137.293 67.5487 137.192 67.6747 137.112C67.7664 137.048 67.858 136.993 67.9451 136.938C68.0322 136.883 68.1376 136.832 68.2522 136.777C68.4172 136.694 68.5909 136.63 68.7701 136.585C68.9551 136.543 69.144 136.52 69.3338 136.516C69.535 136.516 69.7353 136.542 69.9296 136.594C70.1423 136.649 70.346 136.734 70.5345 136.846C70.7003 136.934 70.848 137.052 70.9699 137.194C71.0527 137.286 71.0985 137.405 71.0985 137.529C71.0985 137.653 71.0527 137.772 70.9699 137.864C70.8803 137.98 70.7718 138.081 70.6491 138.161V138.161ZM67.7297 134.037C67.6364 134.087 67.5599 134.163 67.5097 134.257C67.5097 134.316 67.5326 134.38 67.6426 134.445C67.7417 134.509 67.86 134.536 67.9772 134.523C68.1081 134.501 68.2349 134.459 68.353 134.399C68.5297 134.317 68.6985 134.219 68.8571 134.105C68.9487 134.057 69.0237 133.982 69.0725 133.89C69.0725 133.826 69.0496 133.762 68.9396 133.698C68.8415 133.635 68.7253 133.608 68.6097 133.62C68.4764 133.64 68.3476 133.683 68.2293 133.748C68.0557 133.824 67.8886 133.915 67.7297 134.018V134.037ZM68.5959 137.621C68.5063 137.672 68.4319 137.746 68.3805 137.836C68.3805 137.9 68.4034 137.964 68.5134 138.029C68.6115 138.091 68.7278 138.118 68.8434 138.106C68.976 138.086 69.1044 138.044 69.2238 137.983C69.3972 137.897 69.5642 137.799 69.7233 137.689C69.8151 137.639 69.8912 137.565 69.9433 137.474C69.9662 137.41 69.9433 137.346 69.8104 137.282C69.7105 137.22 69.5929 137.192 69.4759 137.204C69.3449 137.225 69.2181 137.267 69.1 137.327C68.9262 137.408 68.7578 137.5 68.5959 137.602V137.621Z" fill="white"/>
<path d="M103.803 150.673L99.4078 148.139L101.846 144.981C102.153 144.582 102.006 144.358 101.516 144.486L95.6863 145.985L91.2912 143.45C90.922 143.263 90.5137 143.165 90.0996 143.165C89.6855 143.165 89.2772 143.263 88.908 143.45L81.983 147.465C81.3276 147.845 81.3276 148.464 81.983 148.84L94.4948 156.068C94.8646 156.253 95.2726 156.35 95.6863 156.35C96.1001 156.35 96.5081 156.253 96.8779 156.068L103.803 152.048C104.463 151.682 104.463 151.067 103.803 150.673Z" fill="#C53F3F"/>
<path d="M96.7724 149.133H96.9878C97.0593 149.144 97.1279 149.169 97.1895 149.207L97.8174 149.569C97.8724 149.601 97.9045 149.633 97.909 149.67C97.9136 149.706 97.909 149.734 97.8495 149.761H97.8036H97.7349L89.0271 150.449C88.9554 150.456 88.8833 150.456 88.8117 150.449C88.7399 150.439 88.6711 150.414 88.61 150.375L87.9867 150.018C87.9317 149.986 87.8996 149.949 87.895 149.917C87.8935 149.897 87.8985 149.877 87.9092 149.859C87.9199 149.842 87.9358 149.828 87.9546 149.821H88.0005C88.0231 149.816 88.0466 149.816 88.0692 149.821L96.7724 149.133ZM93.9676 148.551C93.7825 148.678 93.5879 148.79 93.3856 148.886C93.2237 148.969 93.0531 149.033 92.8768 149.078C92.6932 149.129 92.5035 149.153 92.3131 149.152C92.1087 149.151 91.9053 149.123 91.7082 149.069C91.4973 149.016 91.2951 148.932 91.1078 148.822C90.943 148.733 90.7955 148.615 90.6724 148.473C90.5878 148.377 90.5407 148.253 90.5395 148.125C90.5447 148.006 90.5881 147.892 90.6632 147.8C90.7569 147.684 90.8683 147.583 90.9932 147.502C91.0849 147.438 91.1765 147.383 91.2636 147.332C91.3507 147.282 91.4561 147.227 91.5707 147.167C91.9078 147.002 92.277 146.913 92.6523 146.906C93.0747 146.907 93.4892 147.021 93.853 147.236C94.0188 147.324 94.1665 147.442 94.2884 147.584C94.3713 147.68 94.4182 147.801 94.4213 147.928C94.4154 148.047 94.3721 148.161 94.2976 148.253C94.2064 148.372 94.0946 148.473 93.9676 148.551V148.551ZM94.8338 152.135C94.6486 152.259 94.4557 152.371 94.2563 152.47C94.0942 152.552 93.9236 152.617 93.7476 152.662C93.3642 152.76 92.9624 152.76 92.5789 152.662C92.368 152.607 92.1659 152.522 91.9786 152.41C91.8038 152.326 91.6478 152.208 91.5202 152.062C91.4353 151.967 91.388 151.845 91.3873 151.718C91.39 151.599 91.4319 151.485 91.5065 151.393C91.6018 151.277 91.7147 151.176 91.8411 151.095C91.928 151.032 92.0183 150.974 92.1115 150.921C92.1985 150.87 92.304 150.815 92.4185 150.76C92.753 150.588 93.1239 150.499 93.5001 150.499C93.7013 150.498 93.9017 150.525 94.0959 150.577C94.3069 150.632 94.509 150.717 94.6963 150.829C94.8711 150.913 95.027 151.031 95.1546 151.177C95.2396 151.272 95.2869 151.394 95.2875 151.521C95.2849 151.64 95.243 151.754 95.1684 151.846C95.0745 151.961 94.9613 152.059 94.8338 152.135V152.135ZM91.9144 148.01C91.8233 148.062 91.7486 148.138 91.699 148.23C91.699 148.29 91.7219 148.354 91.8319 148.418C91.9303 148.48 92.0463 148.507 92.1619 148.496C92.2945 148.476 92.4229 148.434 92.5423 148.373C92.7185 148.289 92.8871 148.191 93.0464 148.079C93.138 148.03 93.213 147.955 93.2618 147.864C93.2847 147.8 93.2618 147.735 93.1289 147.671C93.0289 147.609 92.9114 147.582 92.7943 147.593C92.6627 147.615 92.5356 147.658 92.4185 147.722C92.2439 147.799 92.0754 147.889 91.9144 147.992V148.01ZM92.7852 151.594C92.6945 151.646 92.6187 151.72 92.5652 151.81C92.5652 151.874 92.5652 151.938 92.7027 152.002C92.8008 152.065 92.917 152.092 93.0327 152.08C93.1638 152.059 93.2907 152.018 93.4085 151.956C93.5833 151.871 93.7518 151.773 93.9126 151.663C94.0044 151.613 94.0805 151.538 94.1326 151.448C94.157 151.384 94.1112 151.319 93.9951 151.255C93.897 151.193 93.7807 151.166 93.6651 151.177C93.534 151.198 93.4071 151.24 93.2893 151.301C93.1146 151.385 92.9461 151.482 92.7852 151.59V151.594Z" fill="white"/>
<path d="M166.435 75.0664L158.988 70.7675V49.2684L166.435 53.5673V75.0664Z" fill="#37474F"/>
<path d="M166.435 75.0664L173.883 70.7675V49.2684L166.435 53.5673V75.0664Z" fill="#455A64"/>
<path d="M158.988 49.2684L166.435 53.5673L173.883 49.2684L166.435 44.9695L158.988 49.2684Z" fill="#455A64"/>
<path d="M149.679 65.3916L142.232 61.0927V18.099L149.679 22.3979V65.3916Z" fill="#37474F"/>
<path d="M149.679 65.3916L157.127 61.0927V18.099L149.679 22.3979V65.3916Z" fill="#455A64"/>
<path d="M142.232 18.0989L149.679 22.3979L157.127 18.0989L149.679 13.8L142.232 18.0989Z" fill="#455A64"/>
<path d="M132.924 55.7167L125.476 51.4178V36.3716L132.924 40.6705V55.7167Z" fill="#37474F"/>
<path d="M132.924 55.7167L140.371 51.4178V36.3716L132.924 40.6705V55.7167Z" fill="#455A64"/>
<path d="M125.476 36.3716L132.924 40.6705L140.371 36.3716L132.924 32.0727L125.476 36.3716Z" fill="#455A64"/>
<path d="M183.191 84.7413L175.743 80.4378V39.5981L183.186 43.897L183.191 84.7413Z" fill="#37474F"/>
<path d="M183.186 84.7413L190.634 80.4378V39.5981L183.186 43.897V84.7413Z" fill="#455A64"/>
<path d="M175.743 39.5981L183.186 43.897L190.634 39.5981L183.191 35.2946L175.743 39.5981Z" fill="#455A64"/>
<g opacity="0.3">
<path opacity="0.3" d="M131.123 81.6202L131.045 34.0113C131.029 33.7358 130.948 33.4678 130.81 33.229C130.671 32.9902 130.479 32.7872 130.247 32.6364L74.0773 0.348746C73.619 0.0966779 73.2844 0.302916 73.2844 0.807053L73.3761 48.3976C73.3911 48.6734 73.4712 48.9418 73.6098 49.1808C73.7484 49.4197 73.9416 49.6225 74.1735 49.7725L130.348 82.0831C130.774 82.3352 131.123 82.1289 131.123 81.6202Z" fill="white"/>
</g>
<path d="M130.692 82.4177C130.53 82.4114 130.372 82.364 130.234 82.2802L74.0589 49.9696C73.7907 49.8008 73.5674 49.5697 73.4078 49.296C73.2482 49.0223 73.1571 48.7141 73.1423 48.3976L73.0552 0.807055C73.036 0.667485 73.0588 0.525366 73.1206 0.398764C73.1824 0.272161 73.2804 0.166794 73.4023 0.0960527C73.5241 0.0253116 73.6642 -0.00760857 73.8048 0.0014801C73.9454 0.0105688 74.0801 0.0612535 74.1918 0.147093L130.366 32.4302C130.634 32.5995 130.857 32.8308 131.017 33.1044C131.176 33.3779 131.267 33.6859 131.283 34.0022L131.361 81.6111C131.372 81.75 131.346 81.8893 131.286 82.0149C131.225 82.1405 131.133 82.2479 131.017 82.326C130.919 82.3851 130.807 82.4168 130.692 82.4177V82.4177ZM73.7243 0.449576C73.6943 0.441609 73.6627 0.441609 73.6327 0.449576C73.5879 0.488112 73.5536 0.537252 73.5328 0.5925C73.5119 0.647748 73.5053 0.707338 73.5135 0.765809L73.5914 48.3747C73.6044 48.6155 73.6749 48.8498 73.7969 49.0579C73.9188 49.2659 74.0888 49.4418 74.2926 49.5708L130.467 81.8815C130.605 81.9594 130.724 81.9823 130.797 81.9364C130.871 81.8906 130.916 81.7806 130.916 81.6202L130.838 34.0113C130.824 33.7767 130.755 33.5486 130.637 33.345C130.519 33.1415 130.356 32.9679 130.16 32.8381L73.9626 0.527488C73.8911 0.481679 73.8091 0.454865 73.7243 0.449576Z" fill="#C53F3F"/>
<path d="M125.788 71.1158C124.298 70.0572 123.428 69.0993 122.836 61.7389L122.786 61.111C122.231 54.1952 121.869 49.6304 118.716 47.7468C117.204 46.8302 115.994 47.7468 114.715 48.7413C113.556 49.6258 112.364 50.5333 111.021 49.7679C108.661 48.393 108.271 45.6707 107.538 40.7026C107.446 40.0885 107.355 39.4423 107.249 38.764C107.089 37.7053 106.951 36.7199 106.823 35.7942C106.099 30.5786 105.659 27.4255 102.992 25.8168C102.729 25.6307 102.426 25.5085 102.108 25.4599C101.79 25.4114 101.465 25.4379 101.158 25.5373C99.1373 26.2431 97.5562 30.5191 95.8833 35.0517C95.755 35.3863 95.6313 35.7392 95.4984 36.0921C94.2839 39.4331 92.9089 43.2233 91.007 43.9245C90.738 44.023 90.4503 44.0593 90.1654 44.0307C89.8804 44.0021 89.6057 43.9094 89.3616 43.7595C87.4688 42.6871 87.1297 39.7539 86.8043 36.9124C86.4789 34.0709 86.1627 31.2157 84.3753 30.1387C84.2237 30.0407 84.0504 29.9815 83.8706 29.9663C83.6907 29.9511 83.5099 29.9804 83.3441 30.0516C81.1259 30.9132 79.1597 37.4761 79.1414 37.5403L78.6831 37.412C78.7656 37.1324 80.7317 30.5695 83.1562 29.6208C83.3877 29.5249 83.6389 29.4861 83.8885 29.5076C84.1382 29.5291 84.379 29.6104 84.5907 29.7445C86.566 30.9269 86.9097 33.938 87.2443 36.8483C87.5788 39.7585 87.8813 42.3938 89.5771 43.3516C89.762 43.4691 89.9715 43.5422 90.1893 43.5653C90.4072 43.5883 90.6274 43.5607 90.8328 43.4845C92.5331 42.8567 93.931 39.0161 95.0538 35.9271C95.1867 35.5696 95.3105 35.2213 95.4388 34.8821C97.2262 30.047 98.7707 25.8718 100.993 25.0927C101.362 24.9733 101.753 24.9405 102.136 24.9969C102.519 25.0534 102.884 25.1975 103.202 25.4181C106.053 27.1413 106.507 30.3724 107.249 35.7254C107.378 36.642 107.515 37.632 107.676 38.6861C107.781 39.3689 107.873 40.0152 107.964 40.6247C108.666 45.4553 109.055 48.1134 111.223 49.36C112.3 49.9787 113.276 49.2317 114.408 48.3701C115.691 47.3893 117.158 46.2848 118.922 47.3435C122.273 49.3509 122.648 54.0118 123.212 61.0652L123.263 61.6931C123.868 69.2001 124.775 69.8417 126.012 70.7354L125.788 71.1158Z" fill="#C53F3F"/>
<g opacity="0.4">
<path opacity="0.4" d="M125.788 71.1158C124.298 70.0572 123.428 69.0993 122.836 61.7389L122.786 61.111C122.231 54.1952 121.869 49.6304 118.716 47.7468C117.204 46.8302 115.994 47.7468 114.715 48.7413C113.556 49.6258 112.364 50.5333 111.021 49.7679C108.661 48.393 108.271 45.6707 107.538 40.7026C107.446 40.0885 107.355 39.4423 107.249 38.764C107.089 37.7053 106.951 36.7199 106.823 35.7942C106.099 30.5786 105.659 27.4255 102.992 25.8168C102.729 25.6307 102.426 25.5085 102.108 25.4599C101.79 25.4114 101.465 25.4379 101.158 25.5373C99.1373 26.2431 97.5562 30.5191 95.8833 35.0517C95.755 35.3863 95.6313 35.7392 95.4984 36.0921C94.2839 39.4331 92.9089 43.2233 91.007 43.9245C90.738 44.023 90.4503 44.0593 90.1654 44.0307C89.8804 44.0021 89.6057 43.9094 89.3616 43.7595C87.4688 42.6871 87.1297 39.7539 86.8043 36.9124C86.4789 34.0709 86.1627 31.2157 84.3753 30.1387C84.2237 30.0407 84.0504 29.9815 83.8706 29.9663C83.6907 29.9511 83.5099 29.9804 83.3441 30.0516C81.1259 30.9132 79.1597 37.4761 79.1414 37.5403L78.6831 37.412C78.7656 37.1324 80.7317 30.5695 83.1562 29.6208C83.3877 29.5249 83.6389 29.4861 83.8885 29.5076C84.1382 29.5291 84.379 29.6104 84.5907 29.7445C86.566 30.9269 86.9097 33.938 87.2443 36.8483C87.5788 39.7585 87.8813 42.3938 89.5771 43.3516C89.762 43.4691 89.9715 43.5422 90.1893 43.5653C90.4072 43.5883 90.6274 43.5607 90.8328 43.4845C92.5331 42.8567 93.931 39.0161 95.0538 35.9271C95.1867 35.5696 95.3105 35.2213 95.4388 34.8821C97.2262 30.047 98.7707 25.8718 100.993 25.0927C101.362 24.9733 101.753 24.9405 102.136 24.9969C102.519 25.0534 102.884 25.1975 103.202 25.4181C106.053 27.1413 106.507 30.3724 107.249 35.7254C107.378 36.642 107.515 37.632 107.676 38.6861C107.781 39.3689 107.873 40.0152 107.964 40.6247C108.666 45.4553 109.055 48.1134 111.223 49.36C112.3 49.9787 113.276 49.2317 114.408 48.3701C115.691 47.3893 117.158 46.2848 118.922 47.3435C122.273 49.3509 122.648 54.0118 123.212 61.0652L123.263 61.6931C123.868 69.2001 124.775 69.8417 126.012 70.7354L125.788 71.1158Z" fill="black"/>
</g>
<path d="M118.038 45.7211C118.379 45.9444 118.663 46.2443 118.867 46.5968C119.072 46.9492 119.191 47.3446 119.216 47.7514C119.216 48.4984 118.689 48.8009 118.043 48.4297C117.7 48.2079 117.415 47.9084 117.21 47.5556C117.006 47.2028 116.887 46.8066 116.865 46.3994C116.865 45.6707 117.373 45.3682 118.038 45.7211Z" fill="#C53F3F"/>
<g opacity="0.2">
<path opacity="0.2" d="M118.038 45.7211C118.379 45.9444 118.663 46.2443 118.867 46.5968C119.072 46.9492 119.191 47.3446 119.216 47.7514C119.216 48.4984 118.689 48.8009 118.043 48.4297C117.7 48.2079 117.415 47.9084 117.21 47.5556C117.006 47.2028 116.887 46.8066 116.865 46.3994C116.865 45.6707 117.373 45.3682 118.038 45.7211Z" fill="black"/>
</g>
<path d="M103.111 24.2678C103.452 24.4903 103.736 24.79 103.94 25.1428C104.144 25.4955 104.262 25.8913 104.284 26.298C104.284 27.0451 103.762 27.3476 103.116 26.9763C102.773 26.7549 102.488 26.4555 102.283 26.1026C102.078 25.7497 101.96 25.3534 101.938 24.946C101.938 24.1807 102.46 23.8965 103.111 24.2678Z" fill="#C53F3F"/>
<g opacity="0.5">
<path opacity="0.5" d="M103.111 24.2678C103.452 24.4903 103.736 24.79 103.94 25.1428C104.144 25.4955 104.262 25.8913 104.284 26.298C104.284 27.0451 103.762 27.3476 103.116 26.9763C102.773 26.7549 102.488 26.4555 102.283 26.1026C102.078 25.7497 101.96 25.3534 101.938 24.946C101.938 24.1807 102.46 23.8965 103.111 24.2678Z" fill="white"/>
</g>
<path d="M84.499 28.5987C84.8416 28.8192 85.1269 29.1178 85.3317 29.4699C85.5364 29.822 85.6547 30.2177 85.6769 30.6245C85.6769 31.3761 85.1544 31.6786 84.5036 31.3073C84.1626 31.0846 83.8788 30.7847 83.675 30.4321C83.4712 30.0794 83.3531 29.6837 83.3304 29.277C83.3258 28.53 83.8528 28.2229 84.499 28.5987Z" fill="#C53F3F"/>
<path opacity="0.65" d="M101.273 79.5212V31.9123C101.258 31.637 101.178 31.3692 101.041 31.1304C100.903 30.8916 100.711 30.6884 100.48 30.5374L51.8036 2.43404C51.3453 2.18197 51.0107 2.38821 51.0107 2.89235V50.5012C51.0256 50.7766 51.1052 51.0445 51.2429 51.2834C51.3807 51.5223 51.5727 51.7253 51.8036 51.8761L100.48 79.9795C100.92 80.2361 101.273 80.0299 101.273 79.5212Z" fill="white"/>
<path d="M100.838 80.3186C100.676 80.3123 100.518 80.265 100.379 80.1811L51.6889 52.0778C51.4215 51.9071 51.1987 51.675 51.0393 51.4007C50.8798 51.1265 50.7883 50.818 50.7723 50.5012V2.89234C50.7542 2.75315 50.7777 2.6117 50.84 2.48588C50.9022 2.36006 51.0003 2.25549 51.1219 2.18537C51.2435 2.11525 51.3831 2.08273 51.5232 2.09192C51.6633 2.1011 51.7975 2.15157 51.9089 2.23696L100.586 30.3403C100.853 30.51 101.076 30.7412 101.235 31.0148C101.395 31.2883 101.486 31.5961 101.502 31.9123V79.5212C101.513 79.6601 101.487 79.7995 101.427 79.925C101.366 80.0506 101.274 80.158 101.158 80.2361C101.061 80.2912 100.95 80.3197 100.838 80.3186V80.3186ZM51.4506 2.55778C51.4205 2.55002 51.389 2.55002 51.3589 2.55778C51.3142 2.59631 51.2798 2.64545 51.259 2.7007C51.2382 2.75595 51.2316 2.81554 51.2398 2.87401V50.5012C51.2541 50.7366 51.3229 50.9655 51.4405 51.1698C51.5582 51.3742 51.7217 51.5485 51.9181 51.6791L100.595 79.7824C100.641 79.8189 100.697 79.8431 100.755 79.8527C100.813 79.8623 100.873 79.8571 100.929 79.8374C101.003 79.7962 101.044 79.6816 101.044 79.5212V31.9123C101.03 31.6775 100.961 31.4491 100.844 31.2454C100.726 31.0418 100.562 30.8684 100.366 30.739L51.6889 2.64027C51.6187 2.59103 51.5362 2.56245 51.4506 2.55778Z" fill="#C53F3F"/>
<path d="M92.9 68.7006V37.3707C92.8921 37.2329 92.8519 37.0989 92.7826 36.9794C92.7134 36.86 92.617 36.7585 92.5013 36.6833L87.712 33.9334C87.492 33.8051 87.3132 33.9059 87.3132 34.1626V65.4741C87.32 65.6122 87.3597 65.7466 87.4291 65.8662C87.4985 65.9858 87.5955 66.0871 87.712 66.1615L92.5013 68.9114C92.7212 69.058 92.9 68.9526 92.9 68.7006Z" fill="#C53F3F"/>
<g opacity="0.3">
<path opacity="0.3" d="M92.9 68.7006V37.3707C92.8921 37.2329 92.8519 37.0989 92.7826 36.9794C92.7134 36.86 92.617 36.7585 92.5013 36.6833L87.712 33.9334C87.492 33.8051 87.3132 33.9059 87.3132 34.1626V65.4741C87.32 65.6122 87.3597 65.7466 87.4291 65.8662C87.4985 65.9858 87.5955 66.0871 87.712 66.1615L92.5013 68.9114C92.7212 69.058 92.9 68.9526 92.9 68.7006Z" fill="black"/>
</g>
<path d="M83.5916 63.3246V47.0456C83.5838 46.9078 83.5436 46.7737 83.4743 46.6543C83.405 46.5349 83.3086 46.4334 83.1929 46.3581L78.399 43.6083C78.1836 43.4845 78.0049 43.6083 78.0049 43.8374V60.1211C78.0129 60.2583 78.0527 60.3919 78.1211 60.5111C78.1895 60.6304 78.2846 60.7322 78.399 60.8085L83.1929 63.5584C83.4129 63.6821 83.5916 63.595 83.5916 63.3246Z" fill="#C53F3F"/>
<g opacity="0.2">
<path opacity="0.2" d="M83.5916 63.3246V47.0456C83.5838 46.9078 83.5436 46.7737 83.4743 46.6543C83.405 46.5349 83.3086 46.4334 83.1929 46.3581L78.399 43.6083C78.1836 43.4845 78.0049 43.6083 78.0049 43.8374V60.1211C78.0129 60.2583 78.0527 60.3919 78.1211 60.5111C78.1895 60.6304 78.2846 60.7322 78.399 60.8085L83.1929 63.5584C83.4129 63.6821 83.5916 63.595 83.5916 63.3246Z" fill="white"/>
</g>
<path d="M74.2926 57.9533V33.0718C74.2847 32.934 74.2445 32.7999 74.1752 32.6805C74.106 32.5611 74.0096 32.4596 73.8938 32.3844L69.1 29.6345C68.8846 29.5062 68.7058 29.607 68.7058 29.8637V54.7406C68.7132 54.878 68.7527 55.0118 68.8211 55.1312C68.8896 55.2506 68.9851 55.3522 69.1 55.428L73.8938 58.1779C74.1047 58.3062 74.2926 58.2054 74.2926 57.9533Z" fill="#C53F3F"/>
<g opacity="0.2">
<path opacity="0.2" d="M74.2926 57.9533V33.0718C74.2847 32.934 74.2445 32.7999 74.1752 32.6805C74.106 32.5611 74.0096 32.4596 73.8938 32.3844L69.1 29.6345C68.8846 29.5062 68.7058 29.607 68.7058 29.8637V54.7406C68.7132 54.878 68.7527 55.0118 68.8211 55.1312C68.8896 55.2506 68.9851 55.3522 69.1 55.428L73.8938 58.1779C74.1047 58.3062 74.2926 58.2054 74.2926 57.9533Z" fill="black"/>
</g>
<path d="M64.9708 52.5957V16.9486C64.9638 16.8111 64.9245 16.6772 64.856 16.5577C64.7875 16.4383 64.6918 16.3367 64.5767 16.2611L59.7828 13.5113C59.5674 13.383 59.3887 13.5113 59.3887 13.7405V49.3692C59.3967 49.5065 59.4365 49.64 59.5049 49.7593C59.5733 49.8785 59.6684 49.9803 59.7828 50.0567L64.5767 52.8065C64.7967 52.9348 64.9708 52.8294 64.9708 52.5957Z" fill="#C53F3F"/>
<path d="M163.951 58.2924C163.887 57.9487 162.205 54.0348 161.513 52.4948L158.007 54.1356L159.35 57.2108L162.979 60.0202C163.333 59.9126 163.631 59.673 163.812 59.3511C163.993 59.0293 164.043 58.6501 163.951 58.2924V58.2924Z" fill="#FFA8A7"/>
<path d="M156.966 99.2879H154.262V103.229H156.966V99.2879Z" fill="#FFA8A7"/>
<path d="M147.441 94.4199L144.739 94.5128L144.874 98.452L147.577 98.359L147.441 94.4199Z" fill="#FFA8A7"/>
<path d="M148.117 42.8429C147.138 42.8657 146.181 43.1356 145.335 43.6276C144.489 44.1196 143.781 44.8177 143.277 45.6569C141.783 47.8797 139.152 51.6791 139.152 51.6791L144.079 53.2419L148.117 42.8429Z" fill="#C53F3F"/>
<g opacity="0.7">
<path opacity="0.7" d="M148.117 42.8429C147.138 42.8657 146.181 43.1356 145.335 43.6276C144.489 44.1196 143.781 44.8177 143.277 45.6569C141.783 47.8797 139.152 51.6791 139.152 51.6791L144.079 53.2419L148.117 42.8429Z" fill="white"/>
</g>
<path d="M156.788 60.8452C156.788 63.43 157.122 80.1445 157.122 80.1445C157.186 80.8869 157.883 82.2573 157.732 85.1125C157.526 88.9944 157.191 99.7783 157.191 99.7783C157.191 99.7783 155.922 101.039 154.13 99.7783C154.13 99.7783 151.678 85.1354 151.196 81.2902C150.77 77.9354 150.055 68.8243 150.055 68.8243L147.548 79.5533C147.548 79.5533 148.007 82.0739 148.084 83.8522C148.162 85.6304 147.626 95.9148 147.626 95.9148C147.187 96.1889 146.685 96.3436 146.168 96.3637C145.651 96.3838 145.138 96.2686 144.679 96.0294C144.679 96.0294 142.507 81.0061 142.227 79.3974C141.948 77.7888 144.134 60.8452 144.134 60.8452H156.788Z" fill="#C53F3F"/>
<path opacity="0.2" d="M156.788 60.8452C156.788 63.43 157.122 80.1445 157.122 80.1445C157.186 80.8869 157.883 82.2573 157.732 85.1125C157.526 88.9944 157.191 99.7783 157.191 99.7783C157.191 99.7783 155.922 101.039 154.13 99.7783C154.13 99.7783 151.678 85.1354 151.196 81.2902C150.77 77.9354 150.055 68.8243 150.055 68.8243L147.548 79.5533C147.548 79.5533 148.007 82.0739 148.084 83.8522C148.162 85.6304 147.626 95.9148 147.626 95.9148C147.187 96.1889 146.685 96.3436 146.168 96.3637C145.651 96.3838 145.138 96.2686 144.679 96.0294C144.679 96.0294 142.507 81.0061 142.227 79.3974C141.948 77.7888 144.134 60.8452 144.134 60.8452H156.788Z" fill="black"/>
<path d="M152.718 42.9254C155.142 43.5075 158.218 44.4882 159.299 46.7248C160.381 48.9613 162.049 52.5865 162.049 52.5865L158.034 54.9605L156.788 52.8157V60.8452C154.89 62.9076 148.272 63.87 144.129 60.8452V47.6276C144.129 45.524 145.303 42.9896 148.534 42.8017L152.718 42.9254Z" fill="#C53F3F"/>
<path opacity="0.7" d="M152.718 42.9254C155.142 43.5075 158.218 44.4882 159.299 46.7248C160.381 48.9613 162.049 52.5865 162.049 52.5865L158.034 54.9605L156.788 52.8157V60.8452C154.89 62.9076 148.272 63.87 144.129 60.8452V47.6276C144.129 45.524 145.303 42.9896 148.534 42.8017L152.718 42.9254Z" fill="white"/>
<path d="M153.63 32.1369C153.848 32.1118 154.068 32.1368 154.275 32.2099C154.481 32.283 154.668 32.4022 154.822 32.5585C155.335 33.081 155.229 34.0526 154.822 36.28L153.236 36.4633L153.63 32.1369Z" fill="#263238"/>
<path d="M144.414 31.5136C144.073 31.5178 143.736 31.4507 143.424 31.3165C142.938 31.037 142.81 31.5869 143.075 32.0681C143.251 32.4114 143.512 32.704 143.833 32.9181C144.154 33.1323 144.524 33.2609 144.909 33.2918C144.909 33.2231 145.367 32.0544 145.367 32.0544L144.414 31.5136Z" fill="#263238"/>
<path d="M152.888 36.4633C153.121 36.6054 153.456 36.1517 153.745 35.8492C153.859 35.7191 154.004 35.62 154.167 35.5614C154.33 35.5028 154.505 35.4864 154.675 35.5139C154.846 35.5414 155.007 35.6118 155.144 35.7185C155.28 35.8253 155.387 35.9648 155.454 36.1242C155.935 37.137 154.845 38.489 154.203 38.9336C154.024 39.0885 153.8 39.183 153.564 39.2035C153.328 39.2241 153.091 39.1697 152.888 39.0481L152.718 42.9254C152.435 43.5468 152.002 44.0881 151.458 44.5008C150.914 44.9136 150.276 45.1848 149.602 45.2903C147.31 45.5973 147.791 43.7229 148.538 42.8017V41.3901C147.969 41.5134 147.385 41.5443 146.806 41.4818C146.508 41.4038 145.802 40.5651 145.344 39.5889C144.831 38.5119 143.969 36.6008 144.739 33.3697C145.555 29.9004 149.281 29.7949 151.508 31.1928C153.736 32.5906 152.888 36.4633 152.888 36.4633Z" fill="#FFA8A7"/>
<path d="M152.888 36.8574C153.002 36.8574 153.456 36.115 153.745 35.8492C154.153 35.4779 153.63 32.1369 153.63 32.1369C153.63 32.1369 154.038 30.872 153.236 30.0287C152.434 29.1854 150.885 29.332 149.748 29.2908C148.353 29.2978 146.972 29.0202 145.688 28.475C144.074 27.7738 143.955 27.6913 143.754 28.4017C143.552 29.1121 143.479 30.7299 144.441 31.8161L145.243 32.114C145.243 32.114 145.674 32.4944 147.177 32.6777C148.567 32.7832 149.963 32.7571 151.348 32.5998C151.783 32.5402 151.875 32.9618 152.109 34.1168C152.319 35.1342 152.489 36.8529 152.888 36.8574Z" fill="#263238"/>
<path d="M153.625 32.3981L155.046 31.6327C155.001 31.5373 154.937 31.4521 154.858 31.3822C154.778 31.3124 154.686 31.2593 154.586 31.2263C154.485 31.1933 154.379 31.181 154.274 31.1902C154.169 31.1994 154.067 31.2299 153.974 31.2799C153.783 31.3857 153.64 31.5609 153.575 31.7692C153.511 31.9774 153.528 32.2027 153.625 32.3981V32.3981Z" fill="#263238"/>
<path d="M148.538 41.3901C149.51 41.2069 150.463 40.9338 151.384 40.5743C151.818 40.3498 152.173 39.998 152.402 39.566C152.291 39.998 152.095 40.4032 151.824 40.7576C151.284 41.4451 148.538 41.9538 148.538 41.9538V41.3901Z" fill="#F28F8F"/>
<path d="M149.052 35.9362C149.05 35.9928 149.059 36.0491 149.08 36.1018C149.1 36.1546 149.131 36.2027 149.17 36.2433C149.209 36.2839 149.256 36.3162 149.309 36.3383C149.361 36.3603 149.417 36.3717 149.473 36.3716C149.566 36.379 149.659 36.3579 149.739 36.3112C149.82 36.2644 149.884 36.1943 149.924 36.1101C149.964 36.0258 149.977 35.9315 149.961 35.8397C149.946 35.7478 149.903 35.6628 149.839 35.5959C149.774 35.529 149.69 35.4835 149.599 35.4653C149.508 35.4471 149.413 35.4571 149.327 35.4941C149.242 35.531 149.17 35.5932 149.121 35.6721C149.071 35.7511 149.047 35.8432 149.052 35.9362V35.9362Z" fill="#263238"/>
<path d="M149.496 34.3413L150.413 34.8409C150.476 34.7167 150.49 34.573 150.451 34.4391C150.411 34.3053 150.322 34.1916 150.202 34.1213C150.142 34.0868 150.075 34.0651 150.006 34.0575C149.937 34.0499 149.867 34.0567 149.801 34.0773C149.735 34.098 149.673 34.1321 149.621 34.1775C149.569 34.2229 149.526 34.2787 149.496 34.3413V34.3413Z" fill="#263238"/>
<path d="M149.083 38.8007L148.116 39.1627C148.138 39.227 148.172 39.2864 148.217 39.3374C148.262 39.3884 148.316 39.43 148.377 39.4599C148.438 39.4897 148.504 39.5072 148.572 39.5112C148.64 39.5153 148.708 39.5059 148.772 39.4835C148.901 39.4313 149.006 39.3313 149.064 39.2042C149.122 39.0772 149.129 38.9327 149.083 38.8007V38.8007Z" fill="#F28F8F"/>
<path d="M145.284 34.6942L146.105 34.0572C146.066 34.0017 146.016 33.9546 145.959 33.9188C145.902 33.883 145.838 33.8593 145.771 33.849C145.704 33.8387 145.636 33.8421 145.57 33.859C145.505 33.8759 145.443 33.9059 145.39 33.9472C145.279 34.0341 145.207 34.1603 145.187 34.2995C145.167 34.4387 145.202 34.5801 145.284 34.6942V34.6942Z" fill="#263238"/>
<path d="M145.536 35.8171C145.536 35.8724 145.547 35.9273 145.568 35.9784C145.59 36.0296 145.621 36.0761 145.66 36.1152C145.699 36.1544 145.746 36.1854 145.797 36.2066C145.848 36.2278 145.903 36.2387 145.958 36.2387C146.013 36.2387 146.068 36.2278 146.119 36.2066C146.171 36.1854 146.217 36.1544 146.256 36.1152C146.295 36.0761 146.326 36.0296 146.348 35.9784C146.369 35.9273 146.38 35.8724 146.38 35.8171C146.382 35.7606 146.372 35.7042 146.352 35.6515C146.331 35.5987 146.3 35.5506 146.261 35.51C146.222 35.4694 146.175 35.4371 146.123 35.415C146.071 35.393 146.015 35.3817 145.958 35.3817C145.845 35.3841 145.737 35.4312 145.658 35.5127C145.579 35.5942 145.535 35.7036 145.536 35.8171V35.8171Z" fill="#263238"/>
<path d="M147.686 35.4138L147.548 37.9574L146.224 37.5037L147.686 35.4138Z" fill="#F28F8F"/>
<path d="M136.65 50.7212L147.457 53.5673L150.646 66.9819L140.371 63.9983L136.65 50.7212Z" fill="#C53F3F"/>
<path d="M141.361 59.5986C141.171 59.9381 140.883 60.2127 140.535 60.3867C140.187 60.5608 139.795 60.6263 139.409 60.5748L139.253 60.0202L141.361 59.5986Z" fill="#C53F3F"/>
<path d="M143.776 60.0202C143.822 60.3777 144.56 61.0377 145.802 61.4502C147.214 61.9085 149.381 61.6747 149.381 61.6747L149.189 61.0056L143.776 60.0202Z" fill="#C53F3F"/>
<path opacity="0.43" d="M139.83 52.6644L139.739 52.2519C139.693 52.0228 140.325 52.0136 141.159 52.229L142.75 52.6415C143.584 52.8615 144.294 53.219 144.345 53.4481L144.436 53.8606L139.83 52.6644Z" fill="#455A64"/>
<path d="M139.061 51.1108C139.033 50.9687 139.29 50.932 139.638 51.0283L140.289 51.2208C140.289 51.2208 140.101 50.3042 141.503 50.6387C141.878 50.6939 142.231 50.8448 142.53 51.0769C142.829 51.309 143.062 51.6143 143.208 51.9632L143.882 52.1557C144.253 52.2611 144.588 52.4582 144.634 52.614L144.712 52.8707L139.143 51.4041L139.061 51.1108Z" fill="#37474F"/>
<path d="M139.83 51.5553C140.339 51.6791 140.55 51.7478 140.628 52.0961C140.706 52.4444 140.751 52.7927 140.751 52.7927L143.213 53.4435C143.213 53.4435 143.093 52.9348 143.057 52.7377C143.02 52.5407 143.103 52.4215 143.515 52.5223L143.547 52.3665L139.684 51.3857L139.83 51.5553Z" fill="#37474F"/>
<path d="M139.743 52.7057L139.656 52.2932C139.606 52.064 140.238 52.0549 141.072 52.2703L142.663 52.6828C143.497 52.8982 144.212 53.2556 144.262 53.4848L144.349 53.8973L139.743 52.7057Z" fill="#37474F"/>
<path d="M162.979 60.0202L159.35 57.2108C159.35 57.2108 151.742 58.6407 150.885 58.7095C150.028 58.7782 149.349 57.9304 149.024 57.0871C148.699 56.2438 148.039 56.3492 148.039 56.3492C148.039 56.3492 148.291 57.4216 148.373 57.7608C148.456 58.0999 146.471 58.3795 145.33 57.9945C144.189 57.6095 142.534 58.1687 143.556 59.7269C144.578 61.2852 146.577 61.4593 147.961 61.4639C148.54 61.4582 149.119 61.4184 149.693 61.3447C150.151 61.2897 150.61 61.2439 151.036 61.2118C153.868 61.0102 161.692 60.4235 162.979 60.0202Z" fill="#FFA8A7"/>
<path d="M137.745 54.6443L138.226 56.3538C138.318 56.6838 139.574 57.2704 140.371 57.4996C141.169 57.7287 142.035 57.9579 141.659 59.0899C141.311 60.1119 140.005 60.3456 139.34 60.3181C138.892 60.2425 138.474 60.0445 138.132 59.746C137.79 59.4476 137.537 59.0603 137.401 58.627C136.943 57.3208 137.191 55.923 137.007 55.1576C136.824 54.3922 137.351 54.1906 137.745 54.6443Z" fill="#F28F8F"/>
<path d="M154.262 101.896V101.506C154.006 101.621 153.401 103.917 152.328 104.893C151.476 105.672 150.312 106.575 150.037 107.441C149.762 108.307 151.659 108.844 152.457 108.702C153.373 108.537 154.991 107.886 155.394 107.281C155.798 106.676 155.986 105.782 156.311 105.338C156.636 104.893 157.393 104.421 157.571 103.889C157.625 103.41 157.571 102.925 157.416 102.469C157.292 101.987 157.154 101.465 156.994 101.506C156.994 101.566 156.994 101.804 156.994 101.804C156.601 102.108 156.116 102.27 155.619 102.262C155.22 102.276 154.258 102.198 154.262 101.896Z" fill="#37474F"/>
<path d="M144.872 97.6105C144.73 97.6105 144.615 97.8122 144.308 98.1468C143.844 98.6153 143.305 99.0026 142.713 99.2925C141.7 99.8012 139.734 100.58 138.841 100.984C138.281 101.236 138.309 101.9 138.886 102.29C139.464 102.679 140.852 102.95 142.521 102.574C143.437 102.372 144.615 101.534 145.362 101.575C146.109 101.616 147.512 101.612 148.066 101.231C148.621 100.851 148.396 100.035 148.24 99.3338C148.085 98.6326 147.828 97.4043 147.576 97.4547V97.6976C147.25 98.188 145.591 98.3897 144.876 98.0276L144.872 97.6105Z" fill="#37474F"/>
<path d="M27.6874 95.9652L29.3786 98.3163C28.6076 98.6723 27.7666 98.8509 26.9175 98.8388C25.4051 98.8984 24.988 98.3805 24.933 98.2797C24.6764 97.7343 25.0751 96.7443 25.1851 95.8919L27.6874 95.9652Z" fill="#37474F"/>
<path d="M24.9331 93.6003C24.9331 93.6003 25.1898 95.7361 25.2081 96.1944C25.2264 96.6527 27.2934 96.8039 27.6875 95.9652L27.7471 93.3529L24.9331 93.6003Z" fill="#F28F8F"/>
<path d="M24.933 51.5232C23.5214 53.7231 22.1832 55.648 21.8899 58.132C21.2849 63.3521 23.2648 69.3193 23.691 73.1782C22.8896 74.2793 22.4262 75.59 22.3573 76.9501C22.3573 78.545 24.933 93.6003 24.933 93.6003C24.933 93.6003 26.8029 94.1732 27.747 93.3529L29.5161 65.6574L28.5995 62.2843L24.933 51.5232Z" fill="#C53F3F"/>
<path opacity="0.5" d="M24.933 51.5232C23.5214 53.7231 22.1832 55.648 21.8899 58.132C21.2849 63.3521 23.2648 69.3193 23.691 73.1782C22.8896 74.2793 22.4262 75.59 22.3573 76.9501C22.3573 78.545 24.933 93.6003 24.933 93.6003C24.933 93.6003 26.8029 94.1732 27.747 93.3529L29.5161 65.6574L28.5995 62.2843L24.933 51.5232Z" fill="white"/>
<path d="M37.9808 41.2068L47.2891 45.6752L41.7023 58.2374L33.022 53.2281L37.9808 41.2068Z" fill="#C53F3F"/>
<path d="M46.1939 45.9044L41.3725 56.6104L34.6904 52.7607L38.4806 42.2242L46.1939 45.9044Z" fill="#C53F3F"/>
<path d="M38.4805 42.2242L46.1938 45.9044L40.9874 56.725L33.6912 52.559L38.4805 42.2242Z" fill="white"/>
<path d="M40.158 43.7733L40.3367 43.3883C40.4375 43.1775 41.0746 43.2646 41.762 43.59L43.0774 44.2133C43.7648 44.5341 44.2369 44.974 44.1406 45.1849L43.9573 45.5698L40.158 43.7733Z" fill="#E0E0E0"/>
<path d="M21.7754 45.7211C21.0971 47.6551 19.7543 50.7258 20.1851 51.3445C20.6159 51.9632 23.2007 51.8303 24.6398 51.7753C26.473 51.7066 27.9946 51.6332 27.9946 51.6332L27.6875 48.4251H25.0844L26.2301 45.1803L21.7754 45.7211Z" fill="#F28F8F"/>
<path d="M24.383 38.8465C23.4343 40.4047 21.5186 45.9044 21.5186 45.9044C22.0508 46.5081 22.7568 46.9323 23.5397 47.1189C24.2234 47.3287 24.9499 47.3571 25.6479 47.2014L27.7653 41.9309L24.383 38.8465Z" fill="#C53F3F"/>
<path opacity="0.4" d="M24.383 38.8465C23.4343 40.4047 21.5186 45.9044 21.5186 45.9044C22.0508 46.5081 22.7568 46.9323 23.5397 47.1189C24.2234 47.3287 24.9499 47.3571 25.6479 47.2014L27.7653 41.9309L24.383 38.8465Z" fill="black"/>
<path d="M33.8563 39.8273C35.5199 40.3268 36.5328 40.4139 38.3706 43.2416C40.2084 46.0694 44.2323 51.6791 44.631 52.3528C45.1856 53.2694 45.4239 54.406 44.9473 55.2676C44.4706 56.1292 43.2011 55.7259 41.3771 54.1173C39.553 52.5086 36.1157 48.1959 36.1157 48.1959C36.1157 48.1959 32.5317 44.1583 33.8563 39.8273Z" fill="#FFA8A7"/>
<path d="M32.5273 36.1608L32.0781 40.1343L28.155 40.5881L28.7233 35.3129L32.5273 36.1608Z" fill="#FFA8A7"/>
<path d="M24.1355 30.3541C24.4609 26.6876 26.427 25.1706 27.9899 24.8086C31.0926 24.0753 33.8608 25.2027 35.1165 27.3797C35.4465 27.9525 36.0011 30.0974 34.8965 31.3623C33.792 32.6273 24.1355 30.3541 24.1355 30.3541" fill="#263238"/>
<path d="M35.4237 31.6465C35.4237 31.6465 36.2395 33.0214 36.1158 33.1772C35.8989 33.3032 35.6615 33.3901 35.4146 33.4339L35.4237 31.6465Z" fill="#F28F8F"/>
<path d="M32.9489 27.2238C33.7922 27.7234 35.2405 28.6354 35.4375 31.8436C35.6438 35.1388 35.0159 36.1516 34.5209 36.555C34.2047 36.8299 32.5823 36.7383 31.7711 36.4404C30.7766 36.0646 28.5629 35.0425 27.6097 33.2918C26.5097 31.234 26.4135 28.5713 27.8709 27.6134C28.614 27.1211 29.4705 26.8268 30.3593 26.7586C31.248 26.6905 32.1395 26.8506 32.9489 27.2238V27.2238Z" fill="#FFA8A7"/>
<path d="M33.1963 27.3888C33.1963 27.3888 33.7783 30.4182 32.7701 32.2515C32.7701 32.2515 32.3118 31.0553 31.2851 31.3349C30.2585 31.6144 30.2723 32.9618 31.0285 33.6951C31.2201 33.9038 31.4667 34.0541 31.7399 34.1287C32.0132 34.2033 32.302 34.1991 32.573 34.1168C32.4305 35.0603 31.9905 35.9338 31.3172 36.61C30.2484 36.8572 29.1314 36.7974 28.0951 36.4374C27.0588 36.0774 26.1454 35.4318 25.4601 34.5751C23.1685 31.8527 23.7689 27.2422 27.4033 26.2522C31.0377 25.2623 33.1963 27.3888 33.1963 27.3888Z" fill="#263238"/>
<path d="M29.2823 97.1889C29.2823 97.1889 31.3355 97.056 32.7517 96.8772C34.1679 96.6985 35.2907 97.3905 34.9562 97.9772C34.6216 98.5638 33.8425 99.045 32.628 99.4529C31.5876 99.8058 30.3364 100.058 29.2548 100.37C28.1732 100.681 27.4216 101.084 26.7937 100.869C26.0925 100.626 25.79 100.347 25.8496 99.8333C26.0027 99.1032 26.1923 98.3812 26.4179 97.6701L29.2823 97.1889Z" fill="#37474F"/>
<path d="M27.0137 94.9157L26.2758 98.1559C26.2758 98.1559 26.207 98.5501 27.8936 98.8021C29.5802 99.0542 32.2292 97.9222 32.6829 97.6885C33.1366 97.4547 33.187 97.001 31.528 97.0927C29.8689 97.1843 29.2823 97.1889 29.2823 97.1889L29.8368 95.7498L27.0137 94.9157Z" fill="#FFA8A7"/>
<path d="M29.5161 65.6574L28.5995 62.2843C26.8444 61.8223 25.1517 61.1498 23.5581 60.2815C23.5581 60.2815 24.5114 62.0185 27.2246 62.9672L28.6499 67.3027L28.7736 77.2205L29.5161 65.6574Z" fill="#C53F3F"/>
<path d="M24.933 51.5232C24.1768 52.7561 22.3711 54.8689 22.7515 56.8946C23.2098 59.3557 24.5434 61.0789 28.5857 62.2843L32.3805 76.0335C32.3805 76.0335 30.4052 77.8667 29.8002 79.6403C29.1953 81.414 27.0137 94.9294 27.0137 94.9294C27.0137 94.9294 27.6874 96.0294 29.8186 95.7636C29.8186 95.7636 37.2477 78.8062 37.7748 77.7017C38.4036 76.5896 38.6256 75.2932 38.4026 74.0352C38.1689 72.2524 35.6528 52.7882 35.6528 52.7882L24.933 51.5232Z" fill="#C53F3F"/>
<path opacity="0.5" d="M24.933 51.5232C24.1768 52.7561 22.3711 54.8689 22.7515 56.8946C23.2098 59.3557 24.5434 61.0789 28.5857 62.2843L32.3805 76.0335C32.3805 76.0335 30.4052 77.8667 29.8002 79.6403C29.1953 81.414 27.0137 94.9294 27.0137 94.9294C27.0137 94.9294 27.6874 96.0294 29.8186 95.7636C29.8186 95.7636 37.2477 78.8062 37.7748 77.7017C38.4036 76.5896 38.6256 75.2932 38.4026 74.0352C38.1689 72.2524 35.6528 52.7882 35.6528 52.7882L24.933 51.5232Z" fill="white"/>
<path d="M24.2455 39.1306C24.5389 38.3515 25.4738 37.7007 26.3171 37.9299C28.9615 38.6494 33.0725 39.5981 33.8562 39.8273C33.8562 39.8273 33.5079 45.7852 36.5511 47.5635C36.409 48.6955 35.6345 52.7561 35.6345 52.7561C35.6345 52.7561 31.968 54.5343 28.9615 53.6727C25.955 52.8111 24.933 51.537 24.933 51.537L26.4408 49.0805C26.12 48.2784 24.8734 45.5698 24.0714 43.0492C23.7765 41.751 23.8366 40.3975 24.2455 39.1306V39.1306Z" fill="#C53F3F"/>
<path opacity="0.2" d="M24.2455 39.1306C24.5389 38.3515 25.4738 37.7007 26.3171 37.9299C28.9615 38.6494 33.0725 39.5981 33.8562 39.8273C33.8562 39.8273 33.5079 45.7852 36.5511 47.5635C36.409 48.6955 35.6345 52.7561 35.6345 52.7561C35.6345 52.7561 31.968 54.5343 28.9615 53.6727C25.955 52.8111 24.933 51.537 24.933 51.537L26.4408 49.0805C26.12 48.2784 24.8734 45.5698 24.0714 43.0492C23.7765 41.751 23.8366 40.3975 24.2455 39.1306V39.1306Z" fill="black"/>
<path opacity="0.25" d="M26.0283 48.0997C27.2816 48.8535 28.5954 49.502 29.956 50.0383C28.7213 50.0145 27.5125 49.6804 26.4408 49.0667L26.0283 48.0997Z" fill="#C53F3F"/>
<path d="M26.8074 25.6243C26.8074 25.6243 25.5517 23.4841 22.4764 24.0386C19.4012 24.5932 18.1546 27.8563 18.2004 29.9233C18.2462 31.9902 18.9383 33.4339 17.0867 35.8812C16.7218 36.3639 16.4646 36.9192 16.3326 37.5097C16.2006 38.1002 16.1968 38.7121 16.3215 39.3042C16.4462 39.8963 16.6964 40.4548 17.0553 40.9419C17.4142 41.429 17.8735 41.8335 18.4021 42.128C20.8723 43.5029 21.4727 41.1105 20.8998 39.0665C20.2399 36.7245 22.6918 36.3166 23.3472 34.543C24.0026 32.7693 22.7147 29.0433 23.5397 27.7784C24.4563 26.4035 25.6937 26.596 26.2895 27.0634L26.8074 25.6243Z" fill="#263238"/>
<path d="M33.8562 39.8273C34.6781 40.0019 35.4809 40.2567 36.2531 40.588C37.2614 41.083 41.1936 47.2564 41.1936 47.2564C41.1936 47.2564 40.9141 49.58 37.6968 50.5012L35.7948 48.0997C35.7948 48.0997 32.9991 43.9245 33.8562 39.8273Z" fill="#C53F3F"/>
<path opacity="0.1" d="M33.8562 39.8273C34.6781 40.0019 35.4809 40.2567 36.2531 40.588C37.2614 41.083 41.1936 47.2564 41.1936 47.2564C41.1936 47.2564 40.9141 49.58 37.6968 50.5012L35.7948 48.0997C35.7948 48.0997 32.9991 43.9245 33.8562 39.8273Z" fill="black"/>
<path d="M36.354 48.8238C35.5089 47.8402 34.8713 46.696 34.4795 45.4598C34.4795 45.4598 34.4795 48.1272 36.2348 49.5067L36.354 48.8238Z" fill="#C53F3F"/>
<path opacity="0.4" d="M36.354 48.8238C35.5089 47.8402 34.8713 46.696 34.4795 45.4598C34.4795 45.4598 34.4795 48.1272 36.2348 49.5067L36.354 48.8238Z" fill="black"/>
<path d="M40.4925 42.1142C40.552 41.9813 40.8316 41.9905 41.1157 42.1142L41.6291 42.3663C41.6291 42.3663 42.0278 41.5367 43.2194 42.0363C44.411 42.5359 44.0443 43.4937 44.0443 43.4937L44.5897 43.7733C44.8922 43.9245 45.0938 44.1583 45.048 44.2957L44.9564 44.5387L40.3733 42.3388L40.4925 42.1142Z" fill="#455A64"/>
<path d="M40.96 42.6367C41.3908 42.8292 41.5558 42.9208 41.4183 43.2508C41.2808 43.5808 41.0837 43.897 41.0837 43.897L43.1095 44.8686C43.1095 44.8686 43.3249 44.4103 43.4165 44.2087C43.5082 44.007 43.6732 43.9291 43.994 44.0849L44.1315 43.9474L40.9233 42.4579L40.96 42.6367Z" fill="#455A64"/>
<path d="M40.1213 43.6587L40.3047 43.2737C40.4055 43.0583 41.0425 43.15 41.73 43.4754L43.0453 44.0987C43.7282 44.4195 44.2048 44.8549 44.104 45.0703L43.9207 45.4553L40.1213 43.6587Z" fill="#455A64"/>
</svg>
